<svg id="logo-bookmark2" xmlns="http://www.w3.org/2000/svg" width="147.744" height="25" viewBox="0 0 147.744 25">
  <path id="Path_1" data-name="Path 1" d="M37,6.3h5.227a4.583,4.583,0,0,1,2.062.466,3.755,3.755,0,0,1,1.484,1.27,3.213,3.213,0,0,1,.047,3.5,3.257,3.257,0,0,1-1.3,1.129v.15A3.5,3.5,0,0,1,46.184,14a3.136,3.136,0,0,1,.616,1.95,3.342,3.342,0,0,1-.588,1.951,3.817,3.817,0,0,1-1.587,1.307,5.245,5.245,0,0,1-2.212.457H37Zm5.04,5.45a1.861,1.861,0,0,0,1.316-.457,1.579,1.579,0,0,0,.019-2.278,1.748,1.748,0,0,0-1.26-.457h-2.6v3.192h2.52Zm.28,5.619a2.021,2.021,0,0,0,1.428-.476,1.614,1.614,0,0,0,.513-1.241,1.632,1.632,0,0,0-.522-1.251,2.116,2.116,0,0,0-1.494-.485H39.52v3.453Zm12.927,2.595a6.967,6.967,0,0,1-3.556-.924,6.711,6.711,0,0,1-2.511-2.53,7,7,0,0,1-.915-3.528,7,7,0,0,1,.915-3.528,6.711,6.711,0,0,1,2.51-2.529,7.308,7.308,0,0,1,7.114,0,6.711,6.711,0,0,1,2.51,2.53,7,7,0,0,1,.915,3.527,7,7,0,0,1-.915,3.528,6.711,6.711,0,0,1-2.51,2.53,6.97,6.97,0,0,1-3.556.924Zm0-2.39A4.52,4.52,0,0,0,57.505,17a4.177,4.177,0,0,0,1.615-1.624,4.792,4.792,0,0,0,.588-2.39,4.788,4.788,0,0,0-.588-2.389,4.177,4.177,0,0,0-1.615-1.624,4.52,4.52,0,0,0-2.258-.579A4.47,4.47,0,0,0,53,8.968a4.2,4.2,0,0,0-1.6,1.624,4.789,4.789,0,0,0-.588,2.39,4.791,4.791,0,0,0,.588,2.389A4.2,4.2,0,0,0,53,17a4.47,4.47,0,0,0,2.25.578ZM70.6,19.963a6.967,6.967,0,0,1-3.556-.924,6.711,6.711,0,0,1-2.51-2.53,7,7,0,0,1-.915-3.528,7.014,7.014,0,0,1,.914-3.528,6.711,6.711,0,0,1,2.511-2.529,7.3,7.3,0,0,1,7.112,0,6.711,6.711,0,0,1,2.51,2.53,7,7,0,0,1,.915,3.527,7.008,7.008,0,0,1-.914,3.528,6.711,6.711,0,0,1-2.511,2.53A6.97,6.97,0,0,1,70.6,19.963Zm0-2.39a4.52,4.52,0,0,0,2.259-.578,4.177,4.177,0,0,0,1.614-1.624,4.792,4.792,0,0,0,.588-2.39,4.788,4.788,0,0,0-.588-2.389,4.177,4.177,0,0,0-1.614-1.624A4.52,4.52,0,0,0,70.6,8.389a4.47,4.47,0,0,0-2.25.579,4.2,4.2,0,0,0-1.605,1.624,4.789,4.789,0,0,0-.588,2.39,4.791,4.791,0,0,0,.588,2.389A4.2,4.2,0,0,0,68.351,17a4.47,4.47,0,0,0,2.249.578ZM79.83,6.3h2.52v5.73h.15L87.39,6.3h3.043v.149L85.6,11.973l5.338,7.542v.149h-3.08l-3.994-5.693-1.512,1.773v3.92h-2.52V6.3ZM93.779,6h3.248l3.546,9.39h.15L104.268,6h3.267V19.365h-2.5V12.776l.15-2.221h-.15l-3.4,8.81h-1.96l-3.416-8.81h-.149l.15,2.221v6.59H93.778V6Zm20.8,0h2.894l5.021,13.365h-2.781l-1.12-3.192h-5.115l-1.12,3.192h-2.781l5-13.365Zm3.193,7.859L116.6,10.5l-.486-1.606h-.149l-.485,1.606-1.195,3.36h3.49ZM124.553,6h4.872a4.869,4.869,0,0,1,2.324.541,3.907,3.907,0,0,1,1.577,1.5,4.232,4.232,0,0,1,.56,2.175,3.52,3.52,0,0,1-.812,2.286,4.617,4.617,0,0,1-2.044,1.447l-.018.13,3.584,5.134v.15H131.7l-3.453-5.022h-1.176v5.021h-2.52V6Zm4.853,6.03a1.931,1.931,0,0,0,1.4-.523,1.765,1.765,0,0,0,.542-1.326,1.808,1.808,0,0,0-1.9-1.848h-2.371v3.7h2.333ZM136.636,6h2.52v5.73h.15L144.2,6h3.043v.15L142.4,11.675l5.34,7.541v.15h-3.08l-4-5.694-1.512,1.773v3.92h-2.52V6Z" fill="#fff"/>
  <g id="Group_1" data-name="Group 1">
    <circle id="Ellipse_1" data-name="Ellipse 1" cx="12.5" cy="12.5" r="12.5" fill="#5267df"/>
    <path id="Path_2" data-name="Path 2" d="M9,9V19l3.54-3.44L16.078,19V9a2,2,0,0,0-2-2H11A2,2,0,0,0,9,9Z" fill="#fff" fill-rule="evenodd"/>
  </g>
</svg>
